<?xml version="1.0" encoding="UTF-8"?>
<svg id="_图层_1" data-name=" 图层 1" xmlns="http://www.w3.org/2000/svg" viewBox="0 0 512 512">
  <defs>
    <style>
      .cls-1 {
        fill: #fff;
      }

      .cls-2 {
        fill: #0079f5;
      }
    </style>
  </defs>
  <rect class="cls-2" x="16" y="16" width="480" height="480" rx="100" ry="100"/>
  <path class="cls-1" d="M123.35,68.5L48.17,198.71c-9.62,16.67,2.41,37.5,21.65,37.5h150.35c19.25,0,31.27-20.83,21.65-37.5l-75.18-130.21c-9.62-16.67-33.68-16.67-43.3,0Z"/>
  <rect class="cls-1" x="265" y="56" width="200" height="400" rx="50" ry="50"/>
  <circle class="cls-1" cx="145" cy="356" r="100"/>
  <path class="cls-2" d="M368.92,386.5c-1.55,0-3.1-.32-4.52-1.03-3.88-1.81-6.27-5.49-6.27-9.75v-103.82l-65.64,51.04c-3.36,2.65-8.27,2-10.85-1.36-2.58-3.36-2-8.27,1.36-10.85l70.16-54.59-70.09-53.3c-3.42-2.58-4.07-7.43-1.49-10.85,2.58-3.42,7.43-4.07,10.85-1.49l65.7,49.94v-104.14c0-4.2,2.39-7.95,6.2-9.75s8.2-1.23,11.43,1.49l70.35,58.85c2.52,2.07,3.94,5.17,3.88,8.46s-1.55,6.27-4.13,8.27l-67.25,52.39,67.12,51.04c2.58,2,4.13,4.97,4.26,8.27.06,3.29-1.29,6.33-3.75,8.46l-70.35,60.14c-2,1.68-4.46,2.58-6.98,2.58h0ZM373.64,271.7v93.74l58.01-49.61-58.01-44.12h0ZM373.64,146.44v93.74l58.01-45.16s-58.01-48.58-58.01-48.58Z"/>
  <g>
    <path class="cls-2" d="M145,438.5c-45.49,0-82.5-37.01-82.5-82.51s37.01-82.49,82.5-82.49,82.5,37.01,82.5,82.49-37.01,82.51-82.5,82.51ZM145,285.29c-39,0-70.71,31.73-70.71,70.7s31.71,70.72,70.71,70.72,70.71-31.73,70.71-70.7-31.71-70.72-70.71-70.72Z"/>
    <path class="cls-2" d="M203.92,358.94c-1.63,0-2.95-1.32-2.95-2.95,0-30.86-25.12-55.97-55.98-55.97-1.63,0-2.95-1.32-2.95-2.95s1.32-2.95,2.95-2.95c34.12,0,61.87,27.76,61.87,61.86,0,1.63-1.32,2.95-2.95,2.95Z"/>
    <path class="cls-2" d="M198.03,373.67c0,1.63,1.32,2.95,2.94,2.95s2.95-1.32,2.95-2.94h0c0-1.63-1.32-2.95-2.94-2.95s-2.95,1.32-2.95,2.94h0Z"/>
    <path class="cls-2" d="M145,376.62c-11.38,0-20.63-9.25-20.63-20.63s9.25-20.61,20.63-20.61,20.63,9.25,20.63,20.63-9.25,20.61-20.63,20.61ZM145,344.2c-6.51,0-11.79,5.28-11.79,11.79s5.28,11.79,11.79,11.79,11.79-5.28,11.79-11.79-5.28-11.79-11.79-11.79Z"/>
    <path class="cls-2" d="M158.25,350.1c-1.13,0-2.26-.43-3.13-1.3-1.72-1.72-1.72-4.52,0-6.25l20.63-20.63c1.72-1.72,4.52-1.72,6.25,0s1.72,4.52,0,6.25l-20.61,20.65c-.87.85-2,1.28-3.13,1.28Z"/>
  </g>
  <g>
    <path class="cls-2" d="M127.43,212.5c6.66,0,12.92-2.6,17.63-7.3l9.65-9.66c1.5-1.5,1.5-3.93,0-5.42-1.5-1.5-3.93-1.5-5.42,0l-9.65,9.66c-3.26,3.26-7.6,5.06-12.21,5.06s-8.95-1.8-12.21-5.06c-6.73-6.73-6.73-17.68,0-24.42l9.64-9.65c1.5-1.5,1.5-3.93,0-5.42-1.5-1.5-3.93-1.5-5.42,0l-9.64,9.65c-4.71,4.71-7.3,10.97-7.3,17.63s2.6,12.92,7.3,17.63c4.71,4.71,10.96,7.3,17.63,7.3ZM162.56,127.5c-6.66,0-12.92,2.6-17.63,7.3l-9.65,9.66c-1.5,1.5-1.5,3.93,0,5.42,1.5,1.5,3.93,1.5,5.42,0l9.65-9.66c6.73-6.73,17.68-6.73,24.42,0s6.73,17.68,0,24.42l-9.68,9.68c-1.5,1.5-1.5,3.93,0,5.42.75.75,1.72,1.12,2.71,1.12s1.96-.37,2.71-1.12l9.68-9.68c4.71-4.71,7.3-10.97,7.3-17.63s-2.61-12.91-7.31-17.63c-4.72-4.71-10.97-7.3-17.63-7.3Z"/>
    <path class="cls-2" d="M133.51,184.5c.98,0,1.96-.37,2.71-1.12l22.14-22.14c1.5-1.5,1.5-3.93,0-5.42-1.5-1.5-3.93-1.5-5.42,0l-22.14,22.14c-1.5,1.5-1.5,3.93,0,5.42.75.75,1.72,1.12,2.7,1.12Z"/>
  </g>
</svg>